<?xml version="1.0" encoding="utf-8"?>
<!-- Generator: Adobe Illustrator 21.1.0, SVG Export Plug-In . SVG Version: 6.00 Build 0)  -->
<svg version="1.1" id="Layer_1" xmlns="http://www.w3.org/2000/svg" xmlns:xlink="http://www.w3.org/1999/xlink" x="0px" y="0px"
	 viewBox="0 0 88.6 77.1" style="enable-background:new 0 0 88.6 77.1;" xml:space="preserve">
<style type="text/css">
	.st0{fill:#B0D6F9;}
</style>
<path class="st0" d="M77.1,77.1H11.4c-4.2,0-7.9-2.2-9.9-5.8c-2.1-3.6-2-7.9,0.2-11.5L34.5,5.5C36.6,2.1,40.3,0,44.3,0
	c4,0,7.7,2.1,9.8,5.5l32.8,54.3c2.2,3.6,2.2,7.9,0.2,11.5C85,74.9,81.3,77.1,77.1,77.1z M44.3,8c-0.6,0-2,0.2-2.9,1.6L8.5,63.9
	c-0.9,1.5-0.3,2.9-0.1,3.4s1.2,1.7,3,1.7h65.7c1.8,0,2.7-1.2,3-1.7c0.3-0.5,0.9-1.9-0.1-3.4L47.2,9.6C46.3,8.2,44.9,8,44.3,8z"/>
<path class="st0" d="M44.3,47.1c-2.2,0-4-1.8-4-4V28.8c0-2.2,1.8-4,4-4s4,1.8,4,4v14.2C48.3,45.3,46.5,47.1,44.3,47.1z"/>
<circle class="st0" cx="44.3" cy="56.1" r="4.6"/>
</svg>
