<?xml version="1.0" encoding="utf-8"?>
<!-- Generator: Adobe Illustrator 21.1.0, SVG Export Plug-In . SVG Version: 6.00 Build 0)  -->
<svg version="1.1" id="Layer_1" xmlns="http://www.w3.org/2000/svg" xmlns:xlink="http://www.w3.org/1999/xlink" x="0px" y="0px"
	 viewBox="0 0 50 50" style="enable-background:new 0 0 50 50;" xml:space="preserve">
<style type="text/css">
	.st0{fill:#FFFFFF;}
</style>
<title>x-icon</title>
<path class="st0" d="M30.9,25L48.8,7.1c1.5-1.7,1.4-4.3-0.3-5.9c-1.6-1.4-4-1.4-5.6,0L25,19.1L7.1,1.2C5.4-0.3,2.8-0.2,1.2,1.5
	c-1.4,1.6-1.4,4,0,5.6L19.1,25L1.2,42.9c-1.7,1.5-1.8,4.2-0.3,5.9s4.2,1.8,5.9,0.3C6.9,49,7,48.9,7.1,48.8L25,30.9l17.9,17.9
	c1.7,1.5,4.3,1.4,5.9-0.3c1.4-1.6,1.4-4,0-5.6L30.9,25z"/>
</svg>
